<svg width="26" height="26" viewBox="0 0 26 26" fill="none" xmlns="http://www.w3.org/2000/svg">
<path d="M13.25 21.3333C10.9338 21.3333 8.71242 20.4554 7.0746 18.8926C5.43679 17.3297 4.51667 15.2101 4.51667 13C4.51667 10.7899 5.43679 8.67024 7.0746 7.10744C8.71242 5.54464 10.9338 4.66666 13.25 4.66666C15.5662 4.66666 17.7876 5.54464 19.4254 7.10744C21.0632 8.67024 21.9833 10.7899 21.9833 13C21.9833 15.2101 21.0632 17.3297 19.4254 18.8926C17.7876 20.4554 15.5662 21.3333 13.25 21.3333ZM13.25 2.58333C11.8164 2.58333 10.3968 2.85276 9.07237 3.37625C7.7479 3.89974 6.54446 4.66702 5.53075 5.6343C3.48348 7.5878 2.33334 10.2373 2.33334 13C2.33334 15.7627 3.48348 18.4122 5.53075 20.3657C6.54446 21.333 7.7479 22.1003 9.07237 22.6237C10.3968 23.1472 11.8164 23.4167 13.25 23.4167C16.1453 23.4167 18.922 22.3192 20.9693 20.3657C23.0165 18.4122 24.1667 15.7627 24.1667 13C24.1667 11.6321 23.8843 10.2775 23.3357 9.01371C22.7871 7.7499 21.983 6.60158 20.9693 5.6343C19.9555 4.66702 18.7521 3.89974 17.4276 3.37625C16.1032 2.85276 14.6836 2.58333 13.25 2.58333Z" fill="white"/>
</svg>
