<svg width="27" height="26" viewBox="0 0 27 26" fill="none" xmlns="http://www.w3.org/2000/svg">
<path d="M21.0833 5.41667V20.5833H5.91667V5.41667H21.0833ZM21.0833 3.25H5.91667C4.725 3.25 3.75 4.225 3.75 5.41667V20.5833C3.75 21.775 4.725 22.75 5.91667 22.75H21.0833C22.275 22.75 23.25 21.775 23.25 20.5833V5.41667C23.25 4.225 22.275 3.25 21.0833 3.25ZM8.625 6.5C7.75833 6.5 7 7.25833 7 8.125C7 8.99167 7.75833 9.75 8.625 9.75C9.49167 9.75 10.25 8.99167 10.25 8.125C10.25 7.25833 9.49167 6.5 8.625 6.5ZM18.375 16.25C17.5083 16.25 16.75 17.0083 16.75 17.875C16.75 18.7417 17.5083 19.5 18.375 19.5C19.2417 19.5 20 18.7417 20 17.875C20 17.0083 19.2417 16.25 18.375 16.25ZM18.375 6.5C17.5083 6.5 16.75 7.25833 16.75 8.125C16.75 8.99167 17.5083 9.75 18.375 9.75C19.2417 9.75 20 8.99167 20 8.125C20 7.25833 19.2417 6.5 18.375 6.5ZM13.5 11.375C12.6333 11.375 11.875 12.1333 11.875 13C11.875 13.8667 12.6333 14.625 13.5 14.625C14.3667 14.625 15.125 13.8667 15.125 13C15.125 12.1333 14.3667 11.375 13.5 11.375ZM8.625 16.25C7.75833 16.25 7 17.0083 7 17.875C7 18.7417 7.75833 19.5 8.625 19.5C9.49167 19.5 10.25 18.7417 10.25 17.875C10.25 17.0083 9.49167 16.25 8.625 16.25Z" fill="white"/>
</svg>
