<svg width="25" height="26" viewBox="0 0 25 26" fill="none" xmlns="http://www.w3.org/2000/svg">
<path d="M12.25 5C13.3109 5 14.3283 5.42143 15.0784 6.17157C15.8286 6.92172 16.25 7.93913 16.25 9C16.25 10.0609 15.8286 11.0783 15.0784 11.8284C14.3283 12.5786 13.3109 13 12.25 13C11.1891 13 10.1717 12.5786 9.42157 11.8284C8.67143 11.0783 8.25 10.0609 8.25 9C8.25 7.93913 8.67143 6.92172 9.42157 6.17157C10.1717 5.42143 11.1891 5 12.25 5ZM12.25 7C11.7196 7 11.2109 7.21071 10.8358 7.58579C10.4607 7.96086 10.25 8.46957 10.25 9C10.25 9.53043 10.4607 10.0391 10.8358 10.4142C11.2109 10.7893 11.7196 11 12.25 11C12.7804 11 13.2891 10.7893 13.6642 10.4142C14.0393 10.0391 14.25 9.53043 14.25 9C14.25 8.46957 14.0393 7.96086 13.6642 7.58579C13.2891 7.21071 12.7804 7 12.25 7ZM12.25 14C14.92 14 20.25 15.33 20.25 18V21H4.25V18C4.25 15.33 9.58 14 12.25 14ZM12.25 15.9C9.28 15.9 6.15 17.36 6.15 18V19.1H18.35V18C18.35 17.36 15.22 15.9 12.25 15.9Z" fill="white"/>
</svg>
